<svg
  version="1.1"
  id="Layer_1"
  xmlns="http://www.w3.org/2000/svg"
  xmlns:xlink="http://www.w3.org/1999/xlink"
  x="0px"
  y="0px"
  width="48px"
  height="48px"
  viewBox="0 0 128 128"
  enable-background="new 0 0 128 128"
  xml:space="preserve"
>
<path
    fill="#4C6971"
    opacity="1.000000"
    stroke="none"
    d="
M88.000000,129.000000 
	C58.666668,129.000000 29.833334,129.000000 1.000000,129.000000 
	C1.000000,86.333336 1.000000,43.666668 1.000000,1.000000 
	C43.666668,1.000000 86.333336,1.000000 129.000000,1.000000 
	C129.000000,43.666668 129.000000,86.333336 129.000000,129.000000 
	C115.500000,129.000000 102.000000,129.000000 88.000000,129.000000 
M95.999939,42.497971 
	C95.996475,46.827370 95.823677,51.165356 96.042519,55.483486 
	C96.221291,59.010948 94.797058,60.079556 91.390808,60.046677 
	C77.570908,59.913280 63.746643,59.852062 49.929176,60.079563 
	C45.800381,60.147541 44.760761,58.528442 44.964142,54.805798 
	C45.425488,46.361370 45.864777,37.907139 45.956406,29.453026 
	C46.114147,14.898815 46.000061,14.897579 31.561218,15.002051 
	C25.037094,15.049256 25.009008,15.049243 25.006111,21.845728 
	C24.994049,50.154221 24.979544,78.462746 25.010239,106.771217 
	C25.022453,118.035690 23.916140,116.953560 35.170036,116.991997 
	C42.793568,117.018036 44.969017,114.786369 44.990582,106.916046 
	C45.020702,95.925774 44.986660,84.935310 45.015190,73.945030 
	C45.019760,72.183159 45.207294,70.421768 45.290451,68.998901 
	C48.670410,68.998901 51.474648,69.060883 54.275387,68.988121 
	C66.057983,68.682014 77.844467,68.449615 89.618790,67.941551 
	C93.681641,67.766243 95.160728,69.013237 95.080536,73.242393 
	C94.843811,85.726906 94.951317,98.219231 95.047325,110.707550 
	C95.064301,112.915810 93.867134,116.155617 97.916794,116.310638 
	C102.020607,116.467720 103.096642,114.205559 103.091675,110.311394 
	C103.082390,103.025711 103.721054,95.741806 103.947639,88.452736 
	C104.664513,65.390549 105.275169,42.324993 106.032005,19.264183 
	C106.157394,15.443482 104.846504,13.930186 100.875481,13.914393 
	C96.644981,13.897568 95.895920,15.965823 95.963638,19.519007 
	C96.103218,26.843208 96.002052,34.172001 95.999939,42.497971 
z"
  />
<path
    fill="#BE959F"
    opacity="1.000000"
    stroke="none"
    d="
M95.999939,41.998436 
	C96.002052,34.172001 96.103218,26.843208 95.963638,19.519007 
	C95.895920,15.965823 96.644981,13.897568 100.875481,13.914393 
	C104.846504,13.930186 106.157394,15.443482 106.032005,19.264183 
	C105.275169,42.324993 104.664513,65.390549 103.947639,88.452736 
	C103.721054,95.741806 103.082390,103.025711 103.091675,110.311394 
	C103.096642,114.205559 102.020607,116.467720 97.916794,116.310638 
	C93.867134,116.155617 95.064301,112.915810 95.047325,110.707550 
	C94.951317,98.219231 94.843811,85.726906 95.080536,73.242393 
	C95.160728,69.013237 93.681641,67.766243 89.618790,67.941551 
	C77.844467,68.449615 66.057983,68.682014 54.275387,68.988121 
	C51.474648,69.060883 48.670410,68.998901 45.290451,68.998901 
	C45.207294,70.421768 45.019760,72.183159 45.015190,73.945030 
	C44.986660,84.935310 45.020702,95.925774 44.990582,106.916046 
	C44.969017,114.786369 42.793568,117.018036 35.170036,116.991997 
	C23.916140,116.953560 25.022453,118.035690 25.010239,106.771217 
	C24.979544,78.462746 24.994049,50.154221 25.006111,21.845728 
	C25.009008,15.049243 25.037094,15.049256 31.561218,15.002051 
	C46.000061,14.897579 46.114147,14.898815 45.956406,29.453026 
	C45.864777,37.907139 45.425488,46.361370 44.964142,54.805798 
	C44.760761,58.528442 45.800381,60.147541 49.929176,60.079563 
	C63.746643,59.852062 77.570908,59.913280 91.390808,60.046677 
	C94.797058,60.079556 96.221291,59.010948 96.042519,55.483486 
	C95.823677,51.165356 95.996475,46.827370 95.999939,41.998436 
z"
  />
</svg>
