<svg version="1.1" id="Layer_1" xmlns="http://www.w3.org/2000/svg" xmlns:xlink="http://www.w3.org/1999/xlink" x="0px" y="0px"
	 width="100%" viewBox="0 0 2000 1500" enable-background="new 0 0 2000 1500" xml:space="preserve">
<path fill="#FFFFFF" opacity="1.000000" stroke="none" 
	d="
M1409.000000,1501.000000 
	C939.333496,1501.000000 470.166931,1501.000000 1.000315,1501.000000 
	C1.000210,1001.000305 1.000210,501.000580 1.000105,1.000650 
	C667.666199,1.000433 1334.332397,1.000433 2000.998901,1.000217 
	C2000.999268,500.999359 2000.999268,1000.998718 2000.999634,1500.999023 
	C1803.833374,1501.000000 1606.666626,1501.000000 1409.000000,1501.000000 
M840.499939,1174.753052 
	C933.938843,1174.753052 1027.377686,1174.753052 1120.820312,1174.753052 
	C1120.820312,1166.596680 1120.820312,1159.038086 1120.820312,1151.072266 
	C1096.707886,1151.072266 1072.956665,1151.072266 1049.222412,1151.072266 
	C1049.222412,879.641724 1049.222412,608.629089 1049.222412,337.164551 
	C1073.362671,337.164551 1097.103760,337.164551 1120.977783,337.164551 
	C1120.977783,329.623352 1120.977783,322.535217 1120.977783,315.363495 
	C992.751404,315.363495 864.732666,315.363495 736.771606,315.363495 
	C736.771606,322.810669 736.771606,329.889221 736.771606,337.508911 
	C761.003052,337.508911 784.900879,337.508911 808.660645,337.508911 
	C808.660645,464.794006 808.660645,591.526489 808.660645,718.207397 
	C727.080994,718.207397 645.841125,718.207397 564.659119,718.207397 
	C564.659119,591.123413 564.659119,464.404602 564.659119,337.204590 
	C588.457031,337.204590 611.875793,337.204590 635.509460,337.204590 
	C635.509460,329.639099 635.509460,322.556000 635.509460,315.364990 
	C507.583221,315.364990 379.892212,315.364990 252.341187,315.364990 
	C252.341187,322.837708 252.341187,329.942139 252.341187,337.558167 
	C276.537598,337.558167 300.445953,337.558167 324.409363,337.558167 
	C324.409363,608.988525 324.409363,879.896851 324.409363,1151.302734 
	C300.208252,1151.302734 276.294128,1151.302734 252.412628,1151.302734 
	C252.412628,1159.361206 252.412628,1166.916382 252.412628,1174.360596 
	C380.330261,1174.360596 507.883789,1174.360596 635.469238,1174.360596 
	C635.469238,1166.535767 635.469238,1159.106567 635.469238,1151.062744 
	C611.665222,1151.062744 588.127686,1151.062744 564.521423,1151.062744 
	C564.521423,1017.348633 564.521423,884.254272 564.521423,750.867126 
	C646.012939,750.867126 727.258911,750.867126 808.661133,750.867126 
	C808.661133,884.286499 808.661133,1017.665649 808.661133,1151.360107 
	C784.544434,1151.360107 760.765686,1151.360107 736.766113,1151.360107 
	C736.766113,1159.243164 736.766113,1166.807983 736.766113,1174.753052 
	C771.232239,1174.753052 805.366089,1174.753052 840.499939,1174.753052 
M1403.213257,935.234863 
	C1403.213257,909.452759 1403.213257,883.670593 1403.213257,857.361816 
	C1518.609741,857.361816 1633.848877,857.361816 1749.119751,857.361816 
	C1749.337036,856.214294 1749.545776,855.576233 1749.567505,854.931824 
	C1750.899658,815.290283 1748.421143,776.005981 1737.666138,737.619263 
	C1726.127563,696.436096 1705.855591,660.565186 1672.568481,632.857544 
	C1640.226074,605.936218 1602.319702,591.480042 1561.471069,584.041565 
	C1515.898438,575.742981 1470.076904,574.954468 1424.140869,580.862366 
	C1382.148071,586.263184 1342.244873,598.284119 1305.218994,619.060181 
	C1252.805542,648.470520 1212.555786,689.159790 1189.297852,745.353821 
	C1173.296753,784.014832 1166.664307,824.523560 1165.754395,866.145325 
	C1164.687500,914.948364 1169.498047,962.945129 1186.033569,1009.210938 
	C1205.327759,1063.195435 1237.462036,1107.469360 1286.126831,1138.726807 
	C1331.806152,1168.066772 1382.857056,1180.727173 1436.239746,1184.789062 
	C1457.957153,1186.441406 1479.859009,1185.670898 1501.677002,1186.000122 
	C1524.934937,1186.350830 1547.876831,1183.468018 1570.618042,1178.924683 
	C1599.208496,1173.212524 1626.588745,1164.075684 1651.063232,1147.836426 
	C1687.321167,1123.778564 1712.969482,1090.735962 1731.138550,1051.559937 
	C1738.766846,1035.111816 1744.729858,1018.074829 1749.387329,1000.054138 
	C1741.901123,998.820923 1734.755859,997.643860 1727.438843,996.438538 
	C1726.788574,998.491821 1726.403687,1000.098328 1725.782715,1001.607788 
	C1718.525269,1019.252808 1712.389282,1037.477539 1703.700806,1054.390015 
	C1687.113892,1086.677368 1663.188721,1112.498169 1630.316162,1128.990234 
	C1593.573975,1147.423828 1554.475464,1152.517456 1514.182983,1146.625977 
	C1478.859741,1141.461182 1452.353882,1122.617920 1435.427246,1090.848267 
	C1425.816650,1072.810059 1419.629639,1053.545532 1415.012573,1033.733765 
	C1407.535278,1001.649292 1404.721558,968.993103 1403.213257,935.234863 
z"/>
<path fill="#FF0000" opacity="1.000000" stroke="none" 
	d="
M839.999878,1174.753052 
	C805.366089,1174.753052 771.232239,1174.753052 736.766113,1174.753052 
	C736.766113,1166.807983 736.766113,1159.243164 736.766113,1151.360107 
	C760.765686,1151.360107 784.544434,1151.360107 808.661133,1151.360107 
	C808.661133,1017.665649 808.661133,884.286499 808.661133,750.867126 
	C727.258911,750.867126 646.012939,750.867126 564.521423,750.867126 
	C564.521423,884.254272 564.521423,1017.348633 564.521423,1151.062744 
	C588.127686,1151.062744 611.665222,1151.062744 635.469238,1151.062744 
	C635.469238,1159.106567 635.469238,1166.535767 635.469238,1174.360596 
	C507.883789,1174.360596 380.330261,1174.360596 252.412628,1174.360596 
	C252.412628,1166.916382 252.412628,1159.361206 252.412628,1151.302734 
	C276.294128,1151.302734 300.208252,1151.302734 324.409363,1151.302734 
	C324.409363,879.896851 324.409363,608.988525 324.409363,337.558167 
	C300.445953,337.558167 276.537598,337.558167 252.341187,337.558167 
	C252.341187,329.942139 252.341187,322.837708 252.341187,315.364990 
	C379.892212,315.364990 507.583221,315.364990 635.509460,315.364990 
	C635.509460,322.556000 635.509460,329.639099 635.509460,337.204590 
	C611.875793,337.204590 588.457031,337.204590 564.659119,337.204590 
	C564.659119,464.404602 564.659119,591.123413 564.659119,718.207397 
	C645.841125,718.207397 727.080994,718.207397 808.660645,718.207397 
	C808.660645,591.526489 808.660645,464.794006 808.660645,337.508911 
	C784.900879,337.508911 761.003052,337.508911 736.771606,337.508911 
	C736.771606,329.889221 736.771606,322.810669 736.771606,315.363495 
	C864.732666,315.363495 992.751404,315.363495 1120.977783,315.363495 
	C1120.977783,322.535217 1120.977783,329.623352 1120.977783,337.164551 
	C1097.103760,337.164551 1073.362671,337.164551 1049.222412,337.164551 
	C1049.222412,608.629089 1049.222412,879.641724 1049.222412,1151.072266 
	C1072.956665,1151.072266 1096.707886,1151.072266 1120.820312,1151.072266 
	C1120.820312,1159.038086 1120.820312,1166.596680 1120.820312,1174.753052 
	C1027.377686,1174.753052 933.938843,1174.753052 839.999878,1174.753052 
z"/>
<path fill="#FF0000" opacity="1.000000" stroke="none" 
	d="
M1403.234619,935.706909 
	C1404.721558,968.993103 1407.535278,1001.649292 1415.012573,1033.733765 
	C1419.629639,1053.545532 1425.816650,1072.810059 1435.427246,1090.848267 
	C1452.353882,1122.617920 1478.859741,1141.461182 1514.182983,1146.625977 
	C1554.475464,1152.517456 1593.573975,1147.423828 1630.316162,1128.990234 
	C1663.188721,1112.498169 1687.113892,1086.677368 1703.700806,1054.390015 
	C1712.389282,1037.477539 1718.525269,1019.252808 1725.782715,1001.607788 
	C1726.403687,1000.098328 1726.788574,998.491821 1727.438843,996.438538 
	C1734.755859,997.643860 1741.901123,998.820923 1749.387329,1000.054138 
	C1744.729858,1018.074829 1738.766846,1035.111816 1731.138550,1051.559937 
	C1712.969482,1090.735962 1687.321167,1123.778564 1651.063232,1147.836426 
	C1626.588745,1164.075684 1599.208496,1173.212524 1570.618042,1178.924683 
	C1547.876831,1183.468018 1524.934937,1186.350830 1501.677002,1186.000122 
	C1479.859009,1185.670898 1457.957153,1186.441406 1436.239746,1184.789062 
	C1382.857056,1180.727173 1331.806152,1168.066772 1286.126831,1138.726807 
	C1237.462036,1107.469360 1205.327759,1063.195435 1186.033569,1009.210938 
	C1169.498047,962.945129 1164.687500,914.948364 1165.754395,866.145325 
	C1166.664307,824.523560 1173.296753,784.014832 1189.297852,745.353821 
	C1212.555786,689.159790 1252.805542,648.470520 1305.218994,619.060181 
	C1342.244873,598.284119 1382.148071,586.263184 1424.140869,580.862366 
	C1470.076904,574.954468 1515.898438,575.742981 1561.471069,584.041565 
	C1602.319702,591.480042 1640.226074,605.936218 1672.568481,632.857544 
	C1705.855591,660.565186 1726.127563,696.436096 1737.666138,737.619263 
	C1748.421143,776.005981 1750.899658,815.290283 1749.567505,854.931824 
	C1749.545776,855.576233 1749.337036,856.214294 1749.119751,857.361816 
	C1633.848877,857.361816 1518.609741,857.361816 1403.213257,857.361816 
	C1403.213257,883.670593 1403.213257,909.452759 1403.234619,935.706909 
M1404.879761,735.406677 
	C1404.879761,767.816284 1404.879761,800.225830 1404.879761,832.630493 
	C1446.525024,832.630493 1488.418335,832.630493 1530.341553,832.630493 
	C1530.510742,831.887817 1530.712402,831.417725 1530.711182,830.948120 
	C1530.584229,780.650818 1531.812134,730.310913 1526.813599,680.149780 
	C1525.114868,663.103088 1522.704468,646.170166 1516.376343,630.010620 
	C1501.701538,592.536865 1456.610718,595.030457 1437.829224,613.399170 
	C1428.427246,622.594421 1422.093994,633.557312 1417.991699,645.858643 
	C1408.408081,674.596741 1406.220337,704.458740 1404.879761,735.406677 
z"/>
<path fill="#FFFEFE" opacity="1.000000" stroke="none" 
	d="
M1404.892334,734.921021 
	C1406.220337,704.458740 1408.408081,674.596741 1417.991699,645.858643 
	C1422.093994,633.557312 1428.427246,622.594421 1437.829224,613.399170 
	C1456.610718,595.030457 1501.701538,592.536865 1516.376343,630.010620 
	C1522.704468,646.170166 1525.114868,663.103088 1526.813599,680.149780 
	C1531.812134,730.310913 1530.584229,780.650818 1530.711182,830.948120 
	C1530.712402,831.417725 1530.510742,831.887817 1530.341553,832.630493 
	C1488.418335,832.630493 1446.525024,832.630493 1404.879761,832.630493 
	C1404.879761,800.225830 1404.879761,767.816284 1404.892334,734.921021 
z"/>
</svg>