<svg version="1.1" id="Layer_1" xmlns="http://www.w3.org/2000/svg" xmlns:xlink="http://www.w3.org/1999/xlink" x="0px" y="0px"
	 width="100%" viewBox="0 0 2000 1161" enable-background="new 0 0 2000 1161" xml:space="preserve">
<path fill="#4C6971" opacity="1.000000" stroke="none" 
	d="
M1162.000000,1.000000 
	C1441.616089,1.000000 1721.232178,1.000000 2000.924072,1.000000 
	C2000.924072,387.879425 2000.924072,774.758850 2000.924072,1162.000000 
	C1900.972290,1162.000000 1800.944092,1162.000000 1700.669556,1161.627319 
	C1707.949097,1160.503906 1715.494507,1159.908691 1722.996094,1158.964478 
	C1733.230957,1157.676392 1743.549194,1156.675903 1753.620117,1154.550171 
	C1767.962769,1151.522583 1782.196045,1147.883179 1796.327881,1143.970337 
	C1820.561279,1137.260742 1843.469116,1127.333862 1864.673828,1113.768433 
	C1884.860962,1100.854126 1903.403564,1085.896118 1918.932251,1067.510498 
	C1927.507690,1057.357544 1936.131348,1047.202515 1944.019287,1036.521118 
	C1957.388184,1018.417847 1967.868652,998.610901 1977.039185,978.067505 
	C1985.843262,958.345398 1992.653198,937.963013 1998.461548,917.198547 
	C1999.292847,914.226562 1998.519043,913.338257 1995.705200,912.968079 
	C1988.728027,912.049805 1981.581421,911.612244 1974.878174,909.679688 
	C1969.629761,908.166443 1968.460571,910.094666 1966.922607,914.323669 
	C1960.234497,932.713867 1953.840454,951.253418 1946.114380,969.211670 
	C1938.342773,987.276245 1927.838623,1003.928528 1916.092407,1019.774292 
	C1901.344849,1039.669189 1884.057861,1056.887451 1863.736694,1071.074829 
	C1844.253296,1084.677368 1822.956299,1094.279907 1800.232544,1101.116211 
	C1777.928467,1107.826416 1755.063477,1110.670532 1731.970093,1111.863037 
	C1722.410034,1112.356567 1712.734985,1111.745972 1703.179077,1110.891602 
	C1692.918335,1109.974365 1682.511353,1109.084961 1672.558350,1106.612671 
	C1630.163574,1096.082031 1598.970337,1071.058105 1579.073975,1032.158813 
	C1570.575439,1015.543762 1564.097046,998.110046 1558.939087,980.168213 
	C1550.606201,951.182129 1545.561523,921.560059 1542.108154,891.673035 
	C1540.219238,875.324036 1538.946655,858.878052 1538.116943,842.439453 
	C1537.280029,825.862305 1537.175781,809.241455 1537.040283,792.637451 
	C1536.871704,771.974670 1537.000000,751.309570 1537.000000,730.645447 
	C1537.000000,728.879456 1537.000000,727.113403 1537.000000,724.798218 
	C1691.362549,724.798218 1845.067505,724.798218 2000.000000,724.798218 
	C2000.000000,715.481934 2000.126221,706.720337 1999.968872,697.963867 
	C1999.763184,686.525208 1999.485962,675.083374 1998.953369,663.656311 
	C1998.500488,653.939636 1998.177734,644.167480 1996.841553,634.552673 
	C1994.637817,618.693970 1991.954346,602.886658 1988.945557,587.158630 
	C1984.329468,563.029480 1976.885376,539.698425 1966.631470,517.397644 
	C1955.985840,494.245148 1943.564453,472.013184 1925.789673,453.443604 
	C1914.142700,441.275665 1902.371948,429.030731 1889.354126,418.418030 
	C1871.697632,404.023621 1852.043335,392.299042 1830.699707,384.076172 
	C1812.618042,377.110107 1794.317139,370.501801 1775.695190,365.205536 
	C1754.777710,359.256409 1733.288452,355.596619 1711.519775,353.936462 
	C1695.930054,352.747559 1680.377686,350.615112 1664.773560,350.187714 
	C1647.193604,349.706207 1629.554688,350.264343 1611.977661,351.117126 
	C1596.374146,351.874207 1580.794067,353.405121 1565.250977,355.042786 
	C1544.423462,357.237305 1524.014526,361.629425 1503.719238,366.853210 
	C1465.119873,376.788239 1428.772705,392.050079 1394.553833,412.282318 
	C1371.356689,425.997864 1349.625732,442.009338 1330.205566,460.659424 
	C1316.657959,473.669891 1304.042480,487.847321 1292.415527,502.609955 
	C1278.866455,519.813171 1267.984131,538.845703 1258.526001,558.720581 
	C1248.164673,580.493408 1240.175049,603.064331 1234.130737,626.305542 
	C1225.725098,658.626953 1221.294189,691.682312 1220.286255,724.967529 
	C1219.519043,750.296265 1220.758423,775.734924 1222.184692,801.063843 
	C1223.141724,818.062439 1225.184937,835.098877 1228.198730,851.856323 
	C1231.570312,870.602173 1235.953613,889.227661 1241.038696,907.589172 
	C1248.344971,933.970337 1259.132202,959.008301 1272.414307,983.007324 
	C1284.125977,1004.168579 1297.697144,1024.041016 1313.785156,1041.993408 
	C1324.343262,1053.775269 1336.079102,1064.566650 1347.838745,1075.191406 
	C1365.674072,1091.305420 1385.944092,1104.035889 1407.257324,1114.970947 
	C1433.931641,1128.656616 1461.768433,1139.499512 1491.102783,1146.003174 
	C1509.416870,1150.063599 1527.887939,1153.422119 1546.308838,1156.990479 
	C1552.186401,1158.129028 1558.129272,1158.929932 1564.034668,1160.237793 
	C1564.017944,1161.060181 1564.008911,1161.530151 1564.000000,1162.000000 
	C1043.000000,1162.000000 522.000000,1162.000000 1.000000,1162.000000 
	C1.000000,1156.913696 1.000000,1151.915039 1.395115,1146.612061 
	C3.557537,1146.538696 5.324807,1146.970947 7.092158,1146.971313 
	C174.573868,1147.002075 342.055573,1147.000000 509.537292,1147.000000 
	C511.285522,1147.000000 513.033752,1147.000000 514.706787,1147.000000 
	C514.706787,1135.947266 514.706787,1125.684570 514.706787,1114.847412 
	C482.703217,1114.847412 450.987946,1114.847412 419.246979,1114.847412 
	C419.246979,937.017639 419.246979,759.769348 419.246979,582.311768 
	C527.865601,582.311768 636.237122,582.311768 744.631409,582.311768 
	C744.631409,759.990051 744.631409,937.356262 744.631409,1115.126465 
	C712.336609,1115.126465 680.408203,1115.126465 648.341614,1115.126465 
	C648.341614,1125.913086 648.341614,1136.292725 648.341614,1146.600830 
	C819.716980,1146.600830 990.750488,1146.600830 1161.701416,1146.600830 
	C1161.701416,1135.936646 1161.701416,1125.673950 1161.701416,1114.836914 
	C1129.359253,1114.836914 1097.310547,1114.836914 1065.407715,1114.836914 
	C1065.407715,753.236816 1065.407715,392.218018 1065.407715,30.795204 
	C1097.742310,30.795204 1129.670776,30.795204 1162.000000,30.795204 
	C1162.000000,20.597452 1162.000000,10.798726 1162.000000,1.000000 
z"/>
<path fill="#FF0000" opacity="1.000000" stroke="none" 
	d="
M1161.531372,1.000000 
	C1162.000000,10.798726 1162.000000,20.597452 1162.000000,30.795204 
	C1129.670776,30.795204 1097.742310,30.795204 1065.407715,30.795204 
	C1065.407715,392.218018 1065.407715,753.236816 1065.407715,1114.836914 
	C1097.310547,1114.836914 1129.359253,1114.836914 1161.701416,1114.836914 
	C1161.701416,1125.673950 1161.701416,1135.936646 1161.701416,1146.600830 
	C990.750488,1146.600830 819.716980,1146.600830 648.341614,1146.600830 
	C648.341614,1136.292725 648.341614,1125.913086 648.341614,1115.126465 
	C680.408203,1115.126465 712.336609,1115.126465 744.631409,1115.126465 
	C744.631409,937.356262 744.631409,759.990051 744.631409,582.311768 
	C636.237122,582.311768 527.865601,582.311768 419.246979,582.311768 
	C419.246979,759.769348 419.246979,937.017639 419.246979,1114.847412 
	C450.987946,1114.847412 482.703217,1114.847412 514.706787,1114.847412 
	C514.706787,1125.684570 514.706787,1135.947266 514.706787,1147.000000 
	C513.033752,1147.000000 511.285522,1147.000000 509.537292,1147.000000 
	C342.055573,1147.000000 174.573868,1147.002075 7.092158,1146.971313 
	C5.324807,1146.970947 3.557537,1146.538696 1.395115,1146.154053 
	C1.000000,1144.933350 1.000000,1143.866577 1.376164,1142.182129 
	C1.834885,1137.155762 2.068781,1132.743042 1.951578,1128.339844 
	C1.859675,1124.887207 1.333335,1121.446167 1.000001,1118.000000 
	C1.000000,1117.250000 1.000000,1116.500000 1.468657,1115.375000 
	C34.191883,1115.000000 66.446449,1115.000000 98.603180,1115.000000 
	C98.603180,753.266296 98.603180,392.243713 98.603180,31.000017 
	C96.384705,31.000017 94.560608,31.000019 92.736519,31.000019 
	C64.239197,31.000006 35.741829,31.020857 7.244652,30.956886 
	C5.162396,30.952211 3.081518,30.333324 1.000000,30.000000 
	C1.000000,29.250000 1.000000,28.500000 1.376169,27.157181 
	C1.834892,18.042908 1.917446,9.521454 2.000000,1.000000 
	C172.687561,1.000000 343.375122,1.000000 514.531372,1.468657 
	C515.000000,11.530262 515.000000,21.123211 515.000000,31.101658 
	C482.694550,31.101658 451.100494,31.101658 419.301453,31.101658 
	C419.301453,200.199005 419.301453,368.893402 419.301453,537.639282 
	C527.971130,537.639282 636.339050,537.639282 744.590088,537.639282 
	C744.590088,368.583710 744.590088,199.889084 744.590088,30.792532 
	C712.254517,30.792532 680.327209,30.792532 648.000000,30.792532 
	C648.000000,20.596764 648.000000,10.798382 648.000000,1.000000 
	C819.020935,1.000000 990.041809,1.000000 1161.531372,1.000000 
z"/>
<path fill="#FF0000" opacity="1.000000" stroke="none" 
	d="
M1564.042236,1159.885376 
	C1558.129272,1158.929932 1552.186401,1158.129028 1546.308838,1156.990479 
	C1527.887939,1153.422119 1509.416870,1150.063599 1491.102783,1146.003174 
	C1461.768433,1139.499512 1433.931641,1128.656616 1407.257324,1114.970947 
	C1385.944092,1104.035889 1365.674072,1091.305420 1347.838745,1075.191406 
	C1336.079102,1064.566650 1324.343262,1053.775269 1313.785156,1041.993408 
	C1297.697144,1024.041016 1284.125977,1004.168579 1272.414307,983.007324 
	C1259.132202,959.008301 1248.344971,933.970337 1241.038696,907.589172 
	C1235.953613,889.227661 1231.570312,870.602173 1228.198730,851.856323 
	C1225.184937,835.098877 1223.141724,818.062439 1222.184692,801.063843 
	C1220.758423,775.734924 1219.519043,750.296265 1220.286255,724.967529 
	C1221.294189,691.682312 1225.725098,658.626953 1234.130737,626.305542 
	C1240.175049,603.064331 1248.164673,580.493408 1258.526001,558.720581 
	C1267.984131,538.845703 1278.866455,519.813171 1292.415527,502.609955 
	C1304.042480,487.847321 1316.657959,473.669891 1330.205566,460.659424 
	C1349.625732,442.009338 1371.356689,425.997864 1394.553833,412.282318 
	C1428.772705,392.050079 1465.119873,376.788239 1503.719238,366.853210 
	C1524.014526,361.629425 1544.423462,357.237305 1565.250977,355.042786 
	C1580.794067,353.405121 1596.374146,351.874207 1611.977661,351.117126 
	C1629.554688,350.264343 1647.193604,349.706207 1664.773560,350.187714 
	C1680.377686,350.615112 1695.930054,352.747559 1711.519775,353.936462 
	C1733.288452,355.596619 1754.777710,359.256409 1775.695190,365.205536 
	C1794.317139,370.501801 1812.618042,377.110107 1830.699707,384.076172 
	C1852.043335,392.299042 1871.697632,404.023621 1889.354126,418.418030 
	C1902.371948,429.030731 1914.142700,441.275665 1925.789673,453.443604 
	C1943.564453,472.013184 1955.985840,494.245148 1966.631470,517.397644 
	C1976.885376,539.698425 1984.329468,563.029480 1988.945557,587.158630 
	C1991.954346,602.886658 1994.637817,618.693970 1996.841553,634.552673 
	C1998.177734,644.167480 1998.500488,653.939636 1998.953369,663.656311 
	C1999.485962,675.083374 1999.763184,686.525208 1999.968872,697.963867 
	C2000.126221,706.720337 2000.000000,715.481934 2000.000000,724.798218 
	C1845.067505,724.798218 1691.362549,724.798218 1537.000000,724.798218 
	C1537.000000,727.113403 1537.000000,728.879456 1537.000000,730.645447 
	C1537.000000,751.309570 1536.871704,771.974670 1537.040283,792.637451 
	C1537.175781,809.241455 1537.280029,825.862305 1538.116943,842.439453 
	C1538.946655,858.878052 1540.219238,875.324036 1542.108154,891.673035 
	C1545.561523,921.560059 1550.606201,951.182129 1558.939087,980.168213 
	C1564.097046,998.110046 1570.575439,1015.543762 1579.073975,1032.158813 
	C1598.970337,1071.058105 1630.163574,1096.082031 1672.558350,1106.612671 
	C1682.511353,1109.084961 1692.918335,1109.974365 1703.179077,1110.891602 
	C1712.734985,1111.745972 1722.410034,1112.356567 1731.970093,1111.863037 
	C1755.063477,1110.670532 1777.928467,1107.826416 1800.232544,1101.116211 
	C1822.956299,1094.279907 1844.253296,1084.677368 1863.736694,1071.074829 
	C1884.057861,1056.887451 1901.344849,1039.669189 1916.092407,1019.774292 
	C1927.838623,1003.928528 1938.342773,987.276245 1946.114380,969.211670 
	C1953.840454,951.253418 1960.234497,932.713867 1966.922607,914.323669 
	C1968.460571,910.094666 1969.629761,908.166443 1974.878174,909.679688 
	C1981.581421,911.612244 1988.728027,912.049805 1995.705200,912.968079 
	C1998.519043,913.338257 1999.292847,914.226562 1998.461548,917.198547 
	C1992.653198,937.963013 1985.843262,958.345398 1977.039185,978.067505 
	C1967.868652,998.610901 1957.388184,1018.417847 1944.019287,1036.521118 
	C1936.131348,1047.202515 1927.507690,1057.357544 1918.932251,1067.510498 
	C1903.403564,1085.896118 1884.860962,1100.854126 1864.673828,1113.768433 
	C1843.469116,1127.333862 1820.561279,1137.260742 1796.327881,1143.970337 
	C1782.196045,1147.883179 1767.962769,1151.522583 1753.620117,1154.550171 
	C1743.549194,1156.675903 1733.230957,1157.676392 1722.996094,1158.964478 
	C1715.494507,1159.908691 1707.949097,1160.503906 1700.211670,1161.627319 
	C1661.979126,1162.000000 1623.958130,1162.000000 1585.256958,1161.627197 
	C1577.731812,1160.798096 1570.887085,1160.341675 1564.042236,1159.885376 
M1592.986206,392.479065 
	C1586.704224,398.177338 1579.415405,403.102295 1574.332275,409.721222 
	C1559.994873,428.390564 1553.280884,450.484100 1549.134277,473.276337 
	C1546.441284,488.079620 1544.597534,503.069397 1543.087280,518.047668 
	C1541.319824,535.577087 1539.447266,553.171326 1539.180542,570.761169 
	C1538.597168,609.233154 1538.997803,647.720032 1539.008545,686.200867 
	C1539.008911,687.652039 1539.135742,689.103210 1539.209351,690.677856 
	C1595.242676,690.677856 1650.936279,690.677856 1707.000000,690.677856 
	C1707.000000,688.555969 1707.018433,686.752686 1706.997192,684.950012 
	C1706.667969,657.026062 1706.474121,629.099548 1705.958130,601.179077 
	C1705.489258,575.812500 1705.108521,550.430786 1703.855591,525.096863 
	C1702.947021,506.722443 1700.782104,488.405060 1698.983643,470.081238 
	C1697.430908,454.261200 1694.050781,438.818420 1688.442017,423.913086 
	C1679.034546,398.912659 1661.278320,384.368958 1634.462280,382.119507 
	C1619.916016,380.899323 1606.054443,384.042145 1592.986206,392.479065 
z"/>
<path fill="#4C6971" opacity="1.000000" stroke="none" 
	d="
M647.531372,1.000000 
	C648.000000,10.798382 648.000000,20.596764 648.000000,30.792532 
	C680.327209,30.792532 712.254517,30.792532 744.590088,30.792532 
	C744.590088,199.889084 744.590088,368.583710 744.590088,537.639282 
	C636.339050,537.639282 527.971130,537.639282 419.301453,537.639282 
	C419.301453,368.893402 419.301453,200.199005 419.301453,31.101658 
	C451.100494,31.101658 482.694550,31.101658 515.000000,31.101658 
	C515.000000,21.123211 515.000000,11.530262 515.000000,1.468657 
	C559.020874,1.000000 603.041809,1.000000 647.531372,1.000000 
z"/>
<path fill="#4C6971" opacity="1.000000" stroke="none" 
	d="
M1.000000,30.468658 
	C3.081518,30.333324 5.162396,30.952211 7.244652,30.956886 
	C35.741829,31.020857 64.239197,31.000006 92.736519,31.000019 
	C94.560608,31.000019 96.384705,31.000017 98.603180,31.000017 
	C98.603180,392.243713 98.603180,753.266296 98.603180,1115.000000 
	C66.446449,1115.000000 34.191883,1115.000000 1.468657,1115.000000 
	C1.000000,753.645752 1.000000,392.291534 1.000000,30.468658 
z"/>
<path fill="#4C6971" opacity="1.000000" stroke="none" 
	d="
M1564.034668,1160.237793 
	C1570.887085,1160.341675 1577.731812,1160.798096 1584.788330,1161.627197 
	C1578.312378,1162.000000 1571.624634,1162.000000 1564.468506,1162.000000 
	C1564.008911,1161.530151 1564.017944,1161.060181 1564.034668,1160.237793 
z"/>
<path fill="#4C6971" opacity="1.000000" stroke="none" 
	d="
M1.500000,1.000000 
	C1.917446,9.521454 1.834892,18.042908 1.376169,26.782181 
	C1.000000,18.333334 1.000000,9.666667 1.500000,1.000000 
z"/>
<path fill="#4C6971" opacity="1.000000" stroke="none" 
	d="
M1.000001,1118.468628 
	C1.333335,1121.446167 1.859675,1124.887207 1.951578,1128.339844 
	C2.068781,1132.743042 1.834885,1137.155762 1.376164,1141.782227 
	C1.000000,1134.312378 1.000000,1126.624878 1.000001,1118.468628 
z"/>
<path fill="#4C6971" opacity="1.000000" stroke="none" 
	d="
M1593.258545,392.228821 
	C1606.054443,384.042145 1619.916016,380.899323 1634.462280,382.119507 
	C1661.278320,384.368958 1679.034546,398.912659 1688.442017,423.913086 
	C1694.050781,438.818420 1697.430908,454.261200 1698.983643,470.081238 
	C1700.782104,488.405060 1702.947021,506.722443 1703.855591,525.096863 
	C1705.108521,550.430786 1705.489258,575.812500 1705.958130,601.179077 
	C1706.474121,629.099548 1706.667969,657.026062 1706.997192,684.950012 
	C1707.018433,686.752686 1707.000000,688.555969 1707.000000,690.677856 
	C1650.936279,690.677856 1595.242676,690.677856 1539.209351,690.677856 
	C1539.135742,689.103210 1539.008911,687.652039 1539.008545,686.200867 
	C1538.997803,647.720032 1538.597168,609.233154 1539.180542,570.761169 
	C1539.447266,553.171326 1541.319824,535.577087 1543.087280,518.047668 
	C1544.597534,503.069397 1546.441284,488.079620 1549.134277,473.276337 
	C1553.280884,450.484100 1559.994873,428.390564 1574.332275,409.721222 
	C1579.415405,403.102295 1586.704224,398.177338 1593.258545,392.228821 
z"/>
</svg>